Patient4_TMGait_0pt6_02_left_21_GRF.mot
version=1
nRows=52
nColumns=19
inDegrees=no
endheader
time	F1x	F1y	F1z	M1x	M1y	M1z	F2x	F2y	F2z	M2x	M2y	M2z	EC1x	EC1y	EC1z	EC2x	EC2y	EC2z
25.79	4.5391	10.9388	0.75235	-3.9852	-0.96101	16.2651	-11.1777	699.4288	-73.1716	281.4016	82.0142	757.0612	-0.0592	0.0182	-0.0073	-0.0462	0.0165	0.9585
25.8017	3.0441	7.926	0.73756	-2.9552	-0.87175	11.5578	-14.7675	704.9406	-66.8901	283.6982	76.9492	757.771	-0.0592	0.0182	-0.0073	-0.0462	0.0165	0.9585
25.8134	1.7402	5.4061	0.63066	-2.0665	-0.7261	7.6395	-17.731	712.8453	-61.2367	287.1119	72.1916	760.7287	-0.0592	0.0182	-0.0073	-0.0462	0.0165	0.9585
25.8251	0.72251	3.5189	0.49031	-1.3859	-0.57365	4.7269	-19.7851	723.0764	-56.5731	291.6265	68.0082	766.0076	-0.0592	0.0182	-0.0073	-0.0462	0.0165	0.9585
25.8369	0.0053751	2.2437	0.35145	-0.9167	-0.43881	2.7748	-20.8376	735.2107	-53.0838	297.0443	64.5581	773.2243	-0.0592	0.0182	-0.0073	-0.0462	0.0165	0.9585
25.8486	-0.45998	1.4902	0.22765	-0.6316	-0.33202	1.6416	-20.9169	748.5226	-50.6921	303.0362	61.7894	781.6239	-0.0592	0.0182	-0.0073	-0.0462	0.0165	0.9585
25.8603	-0.73563	1.1267	0.13563	-0.48362	-0.26661	1.1014	-20.1727	762.1346	-49.2451	309.2007	59.6158	790.3066	-0.0592	0.0182	-0.0073	-0.0462	0.0165	0.9585
25.872	-0.90918	1.0211	0.068974	-0.4225	-0.24313	0.94879	-18.7564	775.0561	-48.5069	315.0947	57.8727	798.2438	-0.0592	0.0182	-0.0073	-0.0462	0.0165	0.9585
25.8837	-1.0209	1.0065	0.036408	-0.39132	-0.26588	0.94927	-16.8322	786.2443	-48.2521	320.2562	56.401	804.4039	-0.0592	0.0182	-0.0073	-0.0462	0.0165	0.9585
25.8954	-1.1287	0.9306	0.027707	-0.33822	-0.32643	0.90942	-14.4839	794.6759	-48.2974	324.2422	55.0525	807.7791	-0.0592	0.0182	-0.0073	-0.0462	0.0165	0.9585
25.9071	-1.2342	0.63442	0.052327	-0.21006	-0.42376	0.62018	-11.7867	799.55	-48.46	326.7099	53.6676	807.6115	-0.0592	0.0182	-0.0073	-0.0462	0.0165	0.9585
25.9189	-1.3473	-0.0047376	0.093951	0.035694	-0.53636	-0.05379	-8.7564	800.3813	-48.6245	327.4562	52.1384	803.4595	-0.0592	0.0182	-0.0073	-0.0462	0.0165	0.9585
25.9306	-1.4281	-1.0874	0.15328	0.43156	-0.64846	-1.244	-5.46	797.0813	-48.6734	326.4441	50.376	795.2918	-0.0592	0.0182	-0.0073	-0.0462	0.0165	0.9585
25.9423	-1.443	-2.6349	0.20489	0.98323	-0.72041	-2.9736	-1.9474	789.9207	-48.6043	323.7851	48.4022	783.4157	-0.0592	0.0182	-0.0073	-0.0462	0.0165	0.9585
25.954	-1.2917	-4.5706	0.23609	1.6616	-0.7064	-5.1739	1.6693	779.5499	-48.4317	319.7433	46.2764	768.5408	-0.0592	0.0182	-0.0073	-0.0462	0.0165	0.9585
25.9657	-0.89159	-6.6495	0.20593	2.38	-0.53213	-7.5567	5.2954	766.9317	-48.2683	314.7097	44.1481	751.6622	-0.0592	0.0182	-0.0073	-0.0462	0.0165	0.9585
25.9774	-0.090891	-8.3966	0.077495	2.972	-0.10295	-9.5899	8.7837	753.2997	-48.1926	309.184	42.1504	734.0343	-0.0592	0.0182	-0.0073	-0.0462	0.0165	0.9585
25.9891	1.2262	-9.0304	-0.21076	3.1643	0.6966	-10.3522	12.0419	739.9375	-48.2996	303.6933	40.4155	716.9172	-0.0592	0.0182	-0.0073	-0.0462	0.0165	0.9585
26.0009	3.1917	-7.4164	-0.71564	2.5579	1.9772	-8.5489	14.9824	728.0419	-48.6332	298.7282	39.0233	701.4858	-0.0592	0.0182	-0.0073	-0.0462	0.0165	0.9585
26.0126	5.8408	-2.0301	-1.4893	0.61467	3.8108	-2.4092	17.577	718.4835	-49.1999	294.6526	37.996	688.552	-0.0592	0.0182	-0.0073	-0.0462	0.0165	0.9585
26.0243	9.1023	8.9414	-2.5441	-3.3078	6.1815	10.1604	19.8391	711.6569	-49.9584	291.6331	37.2937	678.4823	-0.0592	0.0182	-0.0073	-0.0462	0.0165	0.9585
26.036	12.6309	27.4127	-3.8382	-9.8847	8.9125	31.4045	21.8385	707.2873	-50.8138	289.5667	36.8073	670.9912	-0.0592	0.0182	-0.0073	-0.0462	0.0165	0.9585
26.0477	15.7696	54.9618	-5.2311	-19.6688	11.5922	63.1671	23.6338	704.4295	-51.6239	288.0752	36.3848	665.1774	-0.0592	0.0182	-0.0073	-0.0462	0.0165	0.9585
26.0594	17.35	92.1637	-6.4291	-32.8488	13.4553	106.1524	25.3138	701.4851	-52.1927	286.5224	35.82	659.5197	-0.0592	0.0182	-0.0073	-0.0462	0.0165	0.9585
26.0711	15.8838	137.8174	-6.9493	-48.9801	13.4193	159.0096	26.922	696.4458	-52.3054	284.1099	34.9088	652.1393	-0.0592	0.0182	-0.0073	-0.0462	0.0165	0.9585
26.0829	10.5507	188.7209	-6.2175	-66.8956	10.5347	218.0798	28.4645	687.1902	-51.7355	279.9997	33.4545	641.0625	-0.0592	0.0182	-0.0073	-0.0462	0.0165	0.9585
26.0946	2.4355	239.8517	-3.5629	-84.7766	4.4272	277.4618	29.8598	671.8279	-50.3291	273.445	31.3624	624.5691	-0.0592	0.0182	-0.0073	-0.0462	0.0165	0.9585
26.1063	-6.3513	286.0794	1.3778	-100.8038	-4.486	330.9231	31.038	648.975	-48.0467	263.9034	28.6486	601.4046	-0.0592	0.0182	-0.0073	-0.0462	0.0165	0.9585
26.118	-14.2834	325.1533	7.7338	-114.2161	-14.6528	375.5497	31.8882	618.034	-44.9802	251.1342	25.4523	571.0523	-0.0592	0.0182	-0.0073	-0.0462	0.0165	0.9585
26.1297	-20.4304	357.4444	14.7203	-125.1945	-24.8215	411.5835	32.3458	579.1816	-41.3181	235.2016	21.9729	533.6989	-0.0592	0.0182	-0.0073	-0.0462	0.0165	0.9585
26.1414	-24.3943	384.562	21.4938	-134.3662	-33.8827	440.888	32.3555	533.2239	-37.2888	216.4206	18.4314	490.1173	-0.0592	0.0182	-0.0073	-0.0462	0.0165	0.9585
26.1531	-26.1616	408.2866	27.349	-142.4162	-41.0475	465.5557	31.8355	481.4299	-33.0121	195.3016	14.9591	441.4931	-0.0592	0.0182	-0.0073	-0.0462	0.0165	0.9585
26.1649	-26.0626	430.1307	31.968	-149.9118	-46.062	487.3963	30.6639	425.4357	-28.5936	172.5052	11.6915	389.3566	-0.0592	0.0182	-0.0073	-0.0462	0.0165	0.9585
26.1766	-24.3879	451.332	35.0971	-157.3102	-48.7905	507.8241	28.692	367.1295	-24.1156	148.8026	8.7435	335.4452	-0.0592	0.0182	-0.0073	-0.0462	0.0165	0.9585
26.1883	-21.5759	473.0241	37.0005	-164.9924	-49.682	528.2336	25.8138	308.609	-19.7179	125.0433	6.2582	281.6679	-0.0592	0.0182	-0.0073	-0.0462	0.0165	0.9585
26.2	-17.9971	496.2722	37.9077	-173.3077	-49.1629	549.8381	22.0594	252.0364	-15.5708	102.097	4.3461	229.9469	-0.0592	0.0182	-0.0073	-0.0462	0.0165	0.9585
26.2117	-14.038	522.0102	38.3675	-182.5316	-47.9752	573.8049	17.6358	199.4547	-11.8694	80.7814	3.0722	182.0737	-0.0592	0.0182	-0.0073	-0.0462	0.0165	0.9585
26.2234	-9.9965	550.7883	38.7549	-192.8123	-46.6614	600.7486	12.9252	152.5759	-8.7666	61.78	2.4019	139.5081	-0.0592	0.0182	-0.0073	-0.0462	0.0165	0.9585
26.2351	-6.2892	582.5369	39.5945	-204.074	-45.9178	630.6495	8.37	112.5167	-6.3264	45.539	2.2039	103.1851	-0.0592	0.0182	-0.0073	-0.0462	0.0165	0.9585
26.2469	-3.1653	616.5826	41.1979	-216.0532	-46.1676	662.791	4.3751	79.6652	-4.5094	32.2174	2.2864	73.3947	-0.0592	0.0182	-0.0073	-0.0462	0.0165	0.9585
26.2586	-0.80806	652.0659	43.6448	-228.429	-47.5546	696.2742	1.1892	53.7656	-3.1863	21.7166	2.445	49.8713	-0.0592	0.0182	-0.0073	-0.0462	0.0165	0.9585
26.2703	0.85054	687.9282	46.7745	-240.8402	-49.8867	729.9509	-1.084	34.1137	-2.2309	13.7579	2.5399	31.9743	-0.0592	0.0182	-0.0073	-0.0462	0.0165	0.9585
26.282	1.9562	722.9484	50.1942	-252.8784	-52.7024	762.5471	-2.4591	19.8159	-1.5137	7.9789	2.4675	18.9112	-0.0592	0.0182	-0.0073	-0.0462	0.0165	0.9585
26.2937	2.713	755.5702	53.626	-264.0258	-55.6313	792.4177	-3.0202	9.9306	-0.95553	3.9956	2.2004	9.8378	-0.0592	0.0182	-0.0073	-0.0462	0.0165	0.9585
26.3054	3.2769	784.114	56.7768	-273.7167	-58.3072	817.8563	-2.952	3.6067	-0.51924	1.4561	1.7839	3.9928	-0.0592	0.0182	-0.0073	-0.0462	0.0165	0.9585
26.3171	3.848	806.9847	59.6068	-281.4032	-60.608	837.2703	-2.5209	0.054489	-0.20494	0.03549	1.3306	0.66304	-0.0592	0.0182	-0.0073	-0.0462	0.0165	0.9585
26.3289	4.5053	822.9474	62.0329	-286.6623	-62.4093	849.4666	-1.9652	-1.5039	-0.0044312	-0.58321	0.92638	-0.83769	-0.0592	0.0182	-0.0073	-0.0462	0.0165	0.9585
26.3406	5.3422	831.3726	64.0894	-289.2766	-63.7111	853.8769	-1.4097	-1.7794	0.10927	-0.68466	0.59747	-1.1525	-0.0592	0.0182	-0.0073	-0.0462	0.0165	0.9585
26.3523	6.3773	832.4452	65.6967	-289.3194	-64.4275	850.7814	-0.9405	-1.3269	0.15489	-0.49255	0.36093	-0.76763	-0.0592	0.0182	-0.0073	-0.0462	0.0165	0.9585
26.364	7.5996	827.1497	66.787	-287.1487	-64.5063	841.238	-0.57603	-0.55151	0.15465	-0.16914	0.20736	-0.062139	-0.0592	0.0182	-0.0073	-0.0462	0.0165	0.9585
26.3757	8.9686	817.0623	67.2724	-283.3305	-63.8867	826.911	-0.32272	0.30247	0.12471	0.18317	0.12421	0.73826	-0.0592	0.0182	-0.0073	-0.0462	0.0165	0.9585
26.3874	10.4833	804.0091	67.1056	-278.5187	-62.5424	809.6581	-0.15892	1.0776	0.086316	0.50192	0.083434	1.4745	-0.0592	0.0182	-0.0073	-0.0462	0.0165	0.9585
